<svg xmlns="http://www.w3.org/2000/svg" xmlns:xlink="http://www.w3.org/1999/xlink" width="100" zoomAndPan="magnify" viewBox="0 0 75 37.5" height="50" preserveAspectRatio="xMidYMid meet" version="1.0"><defs><g/><clipPath id="e51197898e"><path d="M 0.492188 0 L 74.503906 0 L 74.503906 37.007812 L 0.492188 37.007812 Z M 0.492188 0 " clip-rule="nonzero"/></clipPath><clipPath id="2e8c843b52"><path d="M 0.492188 0 L 74.503906 0 L 74.503906 37.007812 L 0.492188 37.007812 Z M 0.492188 0 " clip-rule="nonzero"/></clipPath><clipPath id="d55cf76a11"><path d="M 1.234375 0 L 73.765625 0 C 74.175781 0 74.507812 0.332031 74.507812 0.738281 L 74.507812 36.265625 C 74.507812 36.675781 74.175781 37.007812 73.765625 37.007812 L 1.234375 37.007812 C 0.824219 37.007812 0.492188 36.675781 0.492188 36.265625 L 0.492188 0.738281 C 0.492188 0.332031 0.824219 0 1.234375 0 Z M 1.234375 0 " clip-rule="nonzero"/></clipPath></defs><g clip-path="url(#e51197898e)"><path fill="#ffffff" d="M 0.492188 0 L 74.507812 0 L 74.507812 37.007812 L 0.492188 37.007812 Z M 0.492188 0 " fill-opacity="1" fill-rule="nonzero"/><path fill="#ffffff" d="M 0.492188 0 L 74.507812 0 L 74.507812 37.007812 L 0.492188 37.007812 Z M 0.492188 0 " fill-opacity="1" fill-rule="nonzero"/></g><g clip-path="url(#2e8c843b52)"><g clip-path="url(#d55cf76a11)"><path fill="#089d29" d="M 0.492188 0 L 74.507812 0 L 74.507812 37.007812 L 0.492188 37.007812 Z M 0.492188 0 " fill-opacity="1" fill-rule="nonzero"/><path stroke-linecap="butt" transform="matrix(0.740132, 0, 0, 0.740132, 0.493421, 0.000000986842)" fill="none" stroke-linejoin="miter" d="M 1.001111 -0.00000133333 L 98.998893 -0.00000133333 C 99.55306 -0.00000133333 100.001671 0.44861 100.001671 0.997499 L 100.001671 48.99889 C 100.001671 49.553056 99.55306 50.001667 98.998893 50.001667 L 1.001111 50.001667 C 0.446944 50.001667 -0.00166667 49.553056 -0.00166667 48.99889 L -0.00166667 0.997499 C -0.00166667 0.44861 0.446944 -0.00000133333 1.001111 -0.00000133333 Z M 1.001111 -0.00000133333 " stroke="#000000" stroke-width="4" stroke-opacity="1" stroke-miterlimit="4"/></g></g><g fill="#ffffff" fill-opacity="1"><g transform="translate(23.046856, 25.904605)"><g><path d="M 7.949219 -3.0625 C 7.949219 -6.019531 3.503906 -5.433594 3.503906 -6.976562 C 3.503906 -7.847656 4.476562 -8.140625 5.195312 -8.140625 C 5.816406 -8.140625 6.726562 -7.890625 7.199219 -7.507812 L 7.804688 -8.90625 C 7.097656 -9.539062 5.917969 -9.777344 4.992188 -9.777344 C 3.179688 -9.777344 1.589844 -8.964844 1.589844 -6.964844 C 1.589844 -4.035156 5.949219 -4.519531 5.949219 -2.945312 C 5.949219 -2.03125 5.078125 -1.589844 4.269531 -1.589844 C 3.652344 -1.589844 2.324219 -2.121094 1.824219 -2.472656 L 1.058594 -0.839844 C 1.929688 -0.160156 3.371094 0.160156 4.460938 0.160156 C 6.316406 0.160156 7.949219 -1.089844 7.949219 -3.0625 Z M 7.949219 -3.0625 "/></g></g></g><g fill="#ffffff" fill-opacity="1"><g transform="translate(33.908469, 25.904605)"><g><path d="M 3.046875 -9.644531 L 1.191406 -9.644531 L 1.191406 0 L 3.046875 0 Z M 3.046875 -9.644531 "/></g></g></g><g fill="#ffffff" fill-opacity="1"><g transform="translate(40.002108, 25.904605)"><g><path d="M 5.992188 -5.992188 L 2.945312 -9.644531 L 1.191406 -9.644531 L 1.191406 0 L 3.0625 0 L 3.0625 -6.964844 L 5.992188 -3.386719 L 8.90625 -6.992188 L 8.90625 0 L 10.761719 0 L 10.761719 -9.644531 L 9.023438 -9.644531 Z M 5.992188 -5.992188 "/></g></g></g></svg>