<svg xmlns="http://www.w3.org/2000/svg" xmlns:xlink="http://www.w3.org/1999/xlink" width="100" zoomAndPan="magnify" viewBox="0 0 75 37.5" height="50" preserveAspectRatio="xMidYMid meet" version="1.0"><defs><g/><clipPath id="158e3bd044"><path d="M 0.492188 0 L 74.503906 0 L 74.503906 37.007812 L 0.492188 37.007812 Z M 0.492188 0 " clip-rule="nonzero"/></clipPath><clipPath id="2ec7e97b8b"><path d="M 0.492188 0 L 74.503906 0 L 74.503906 37.007812 L 0.492188 37.007812 Z M 0.492188 0 " clip-rule="nonzero"/></clipPath><clipPath id="19ad47242e"><path d="M 1.234375 0 L 73.765625 0 C 74.175781 0 74.507812 0.332031 74.507812 0.738281 L 74.507812 36.265625 C 74.507812 36.675781 74.175781 37.007812 73.765625 37.007812 L 1.234375 37.007812 C 0.824219 37.007812 0.492188 36.675781 0.492188 36.265625 L 0.492188 0.738281 C 0.492188 0.332031 0.824219 0 1.234375 0 Z M 1.234375 0 " clip-rule="nonzero"/></clipPath></defs><g clip-path="url(#158e3bd044)"><path fill="#ffffff" d="M 0.492188 0 L 74.507812 0 L 74.507812 37.007812 L 0.492188 37.007812 Z M 0.492188 0 " fill-opacity="1" fill-rule="nonzero"/><path fill="#ffffff" d="M 0.492188 0 L 74.507812 0 L 74.507812 37.007812 L 0.492188 37.007812 Z M 0.492188 0 " fill-opacity="1" fill-rule="nonzero"/></g><g clip-path="url(#2ec7e97b8b)"><g clip-path="url(#19ad47242e)"><path fill="#d60a0a" d="M 0.492188 0 L 74.507812 0 L 74.507812 37.007812 L 0.492188 37.007812 Z M 0.492188 0 " fill-opacity="1" fill-rule="nonzero"/><path stroke-linecap="butt" transform="matrix(0.740132, 0, 0, 0.740132, 0.493421, 0.000000986842)" fill="none" stroke-linejoin="miter" d="M 1.001111 -0.00000133333 L 98.998893 -0.00000133333 C 99.55306 -0.00000133333 100.001671 0.44861 100.001671 0.997499 L 100.001671 48.99889 C 100.001671 49.553056 99.55306 50.001667 98.998893 50.001667 L 1.001111 50.001667 C 0.446944 50.001667 -0.00166667 49.553056 -0.00166667 48.99889 L -0.00166667 0.997499 C -0.00166667 0.44861 0.446944 -0.00000133333 1.001111 -0.00000133333 Z M 1.001111 -0.00000133333 " stroke="#000000" stroke-width="4" stroke-opacity="1" stroke-miterlimit="4"/></g></g><g fill="#ffffff" fill-opacity="1"><g transform="translate(21.150034, 25.904605)"><g><path d="M 3.078125 -9.644531 L 1.191406 -9.644531 L 1.191406 0 L 3.0625 0 L 3.0625 -6.167969 L 6.773438 0 L 8.640625 0 L 8.640625 -9.644531 L 6.785156 -9.644531 L 6.785156 -3.34375 Z M 3.078125 -9.644531 "/></g></g></g><g fill="#ffffff" fill-opacity="1"><g transform="translate(31.878556, 25.904605)"><g><path d="M 3.355469 -10.984375 C 3.59375 -11.410156 3.988281 -11.601562 4.460938 -11.601562 C 5.183594 -11.601562 5.816406 -11.101562 6.550781 -11.101562 C 7.300781 -11.101562 7.890625 -11.691406 8.15625 -12.351562 L 6.933594 -12.96875 C 6.742188 -12.601562 6.464844 -12.5 6.066406 -12.5 C 5.402344 -12.5 4.8125 -12.925781 4.136719 -12.925781 C 3.355469 -12.925781 2.515625 -12.457031 2.222656 -11.703125 Z M 3.769531 -9.644531 L 0.796875 0 L 2.679688 0 L 3.429688 -2.3125 L 6.683594 -2.3125 L 7.449219 0 L 9.320312 0 L 6.34375 -9.644531 Z M 5.050781 -7.832031 L 6.242188 -4.003906 L 3.871094 -4.003906 Z M 5.050781 -7.832031 "/></g></g></g><g fill="#ffffff" fill-opacity="1"><g transform="translate(42.871967, 25.904605)"><g><path d="M 5.476562 -9.804688 C 2.679688 -9.804688 1.058594 -7.449219 1.058594 -4.8125 C 1.058594 -2.164062 2.636719 0.160156 5.476562 0.160156 C 8.332031 0.160156 9.910156 -2.164062 9.910156 -4.8125 C 9.910156 -7.449219 8.304688 -9.804688 5.476562 -9.804688 Z M 5.476562 -8.140625 C 7.289062 -8.140625 7.890625 -6.332031 7.890625 -4.8125 C 7.890625 -3.253906 7.359375 -1.472656 5.476562 -1.472656 C 3.636719 -1.472656 3.078125 -3.28125 3.078125 -4.8125 C 3.078125 -6.332031 3.679688 -8.140625 5.476562 -8.140625 Z M 5.476562 -8.140625 "/></g></g></g></svg>